<svg xmlns="http://www.w3.org/2000/svg" xmlns:xlink="http://www.w3.org/1999/xlink" width="422.5" height="483.59" viewBox="0 0 422.5 483.59">
  <defs>
    <style>
      .cls-1 {
        fill: url(#linear-gradient);
      }
    </style>
    <linearGradient id="linear-gradient" x1="0.751" y1="0.122" x2="0.368" y2="0.699" gradientUnits="objectBoundingBox">
      <stop offset="0" stop-color="#29e7f2"/>
      <stop offset="1" stop-color="#eb6bf5"/>
    </linearGradient>
  </defs>
  <path id="Path_1" data-name="Path 1" class="cls-1" d="M75.3,206.4a13.844,13.844,0,0,1-6.9-1.841L39.417,187.826a13.811,13.811,0,0,1,0-23.92,13.833,13.833,0,0,1,13.805,0L75.3,176.647,205.85,101.279a13.809,13.809,0,0,1,13.805,23.92L82.2,204.558A13.844,13.844,0,0,1,75.3,206.4ZM46.318,189.676a13.875,13.875,0,0,1-6.9-1.849l-141.9-81.92a13.676,13.676,0,0,1-6.9-11.96,13.676,13.676,0,0,1,6.9-11.96,13.89,13.89,0,0,1,6.9-1.849,13.89,13.89,0,0,1,6.9,1.849l141.892,81.92a13.811,13.811,0,0,1,0,23.92A13.89,13.89,0,0,1,46.318,189.676ZM86.332,125.2a13.858,13.858,0,0,1-11.972-6.9,13.811,13.811,0,0,1,5.055-18.865l6.313-3.641a13.805,13.805,0,0,1,13.805,0,13.811,13.811,0,0,1,0,23.92l-6.313,3.646a13.828,13.828,0,0,1-6.888,1.845ZM186.57-88.458a13.868,13.868,0,0,1-11.972-6.9,13.715,13.715,0,0,1-1.381-10.476,13.756,13.756,0,0,1,6.436-8.388l6.317-3.641a13.886,13.886,0,0,1,6.9-1.85,13.89,13.89,0,0,1,6.9,1.85,13.676,13.676,0,0,1,6.9,11.96,13.676,13.676,0,0,1-6.9,11.96l-6.317,3.641a13.779,13.779,0,0,1-6.888,1.849ZM-95.575,107.756a13.89,13.89,0,0,1-6.9-1.849l-12.815-7.4c-6.486-3.744-9.321-11.664-6.448-18.026a13.885,13.885,0,0,1,12.622-8.175,13.794,13.794,0,0,1,6.892,1.849l13.559,7.829a13.681,13.681,0,0,1,6.9,11.96,13.681,13.681,0,0,1-6.9,11.96A13.89,13.89,0,0,1-95.575,107.756Zm230.15-10.419a13.793,13.793,0,0,1-9.9-4.172,13.185,13.185,0,0,1-3.917-11.187,15.031,15.031,0,0,1,7.673-10.846l34.511-19.925c1.167-.674,19.391-10.863,35.563-19.9a20.415,20.415,0,0,1,20.184.144L258.942,54.7V-46.758c0-7.16,4.932-13.357,11.475-14.422a14.6,14.6,0,0,1,2.33-.189,13.818,13.818,0,0,1,13.8,13.805V78.6a13.809,13.809,0,0,1-20.706,11.96L210.958,58.876a6.01,6.01,0,0,0-6.054,0L141.48,95.492A13.831,13.831,0,0,1,134.575,97.337ZM24.12,84.411A13.81,13.81,0,0,1,17.2,58.642L67.11,29.835a13.806,13.806,0,0,1,13.805,0,13.811,13.811,0,0,1,0,23.92L31.008,82.562a13.779,13.779,0,0,1-6.888,1.849ZM-38.089,43.624a13.863,13.863,0,0,1-11.972-6.9,13.718,13.718,0,0,1-1.381-10.476,13.756,13.756,0,0,1,6.436-8.388L-27.082,7.51a13.863,13.863,0,0,1,6.9-1.849,13.875,13.875,0,0,1,6.9,1.849,13.669,13.669,0,0,1,6.9,11.956,13.67,13.67,0,0,1-6.9,11.964L-31.2,41.775a13.79,13.79,0,0,1-6.888,1.849Zm154.67-12.6a13.89,13.89,0,0,1-6.9-1.849,13.813,13.813,0,0,1,0-23.92l98.113-56.643a13.794,13.794,0,0,1,6.888-1.854A13.856,13.856,0,0,1,226.65-46.33,13.824,13.824,0,0,1,221.6-27.47L123.486,29.178A13.89,13.89,0,0,1,116.581,31.027ZM22.385,8.7a13.886,13.886,0,0,1-6.9-1.845A13.677,13.677,0,0,1,8.58-5.112a13.666,13.666,0,0,1,6.9-11.956L141.965-90.085a13.805,13.805,0,0,1,6.9-1.849,13.8,13.8,0,0,1,6.9,1.849,13.653,13.653,0,0,1,6.9,11.956,13.661,13.661,0,0,1-6.9,11.956L29.286,6.857A13.871,13.871,0,0,1,22.385,8.7ZM-122.146-5.679a15.092,15.092,0,0,1-2.33-.189c-6.543-1.06-11.475-7.262-11.475-14.418V-149.392a13.842,13.842,0,0,1,6.9-11.956,13.845,13.845,0,0,1,6.9-1.849,13.848,13.848,0,0,1,6.9,1.849l57.313,33.089L-9.29-156.173a13.821,13.821,0,0,1,6.9-1.854,13.813,13.813,0,0,1,9.872,4.143,13.2,13.2,0,0,1,3.962,11.2,14.985,14.985,0,0,1-7.669,10.85l-30.993,17.891-23.669,13.37a14.554,14.554,0,0,1-7.164,1.886,14.572,14.572,0,0,1-7.283-1.952l-43.015-24.832v106a13.71,13.71,0,0,1-4.044,9.761,13.706,13.706,0,0,1-9.757,4.04Zm58.057-12.4a13.856,13.856,0,0,1-11.968-6.9,13.715,13.715,0,0,1-1.381-10.476A13.713,13.713,0,0,1-71-43.836L118.686-153.354a13.783,13.783,0,0,1,6.888-1.854,13.856,13.856,0,0,1,11.968,6.9,13.824,13.824,0,0,1-5.051,18.861L-57.2-19.924a13.787,13.787,0,0,1-6.884,1.849ZM259.719-143.1a13.756,13.756,0,0,1-6.888-1.858l-58.74-33.907a13.666,13.666,0,0,1-6.9-11.96,13.658,13.658,0,0,1,6.9-11.952,13.805,13.805,0,0,1,6.9-1.849,13.8,13.8,0,0,1,6.9,1.849l58,33.484c6.486,3.74,9.317,11.656,6.449,18.014a13.888,13.888,0,0,1-12.622,8.179Zm-219.542-11.9a13.839,13.839,0,0,1-6.9-1.845,13.666,13.666,0,0,1-6.9-11.952,13.668,13.668,0,0,1,6.9-11.956l23.2-13.394A13.76,13.76,0,0,1,63.366-196a13.856,13.856,0,0,1,11.968,6.909,13.713,13.713,0,0,1,1.381,10.476,13.722,13.722,0,0,1-6.436,8.384l-23.2,13.39A13.843,13.843,0,0,1,40.177-154.994Zm-96.4-18.647a13.851,13.851,0,0,1-11.968-6.9A13.818,13.818,0,0,1-63.135-199.4L68.4-275.341a13.832,13.832,0,0,1,6.9-1.85,13.832,13.832,0,0,1,6.9,1.85l125.7,72.569a13.656,13.656,0,0,1,6.9,11.956,13.661,13.661,0,0,1-6.9,11.956,13.839,13.839,0,0,1-6.9,1.845,13.843,13.843,0,0,1-6.9-1.845L75.3-247.443-49.329-175.494a13.793,13.793,0,0,1-6.888,1.854Zm257.485-3.214a13.79,13.79,0,0,1-6.9-1.849,13.8,13.8,0,0,1-7.18-12.112,13.66,13.66,0,0,1,6.9-11.956,13.805,13.805,0,0,1,6.9-1.849,13.8,13.8,0,0,1,6.9,1.849,13.793,13.793,0,0,1,7.176,12.112,13.66,13.66,0,0,1-6.9,11.956A13.779,13.779,0,0,1,201.267-176.855Z" transform="translate(135.951 277.191)"/>
</svg>
